<svg xmlns="http://www.w3.org/2000/svg" viewBox="0 0 50 30" preserveAspectRatio="xMidYMid meet" style="pointer-events: none; display: block; width: 100%; height: 100%;" class="style-scope s-svg" fill="#0099da">
<path d="M44.8,11.7c0.1-2,0.2-7.2,0.2-8.1c0-0.8-0.5-0.8-0.7-0.8c-5.4-0.2-9.7-0.5-21.7-0.5C9.2,2.3,1.2,2.7,1.2,2.7  S0.5,2.7,0.5,3.6s0.2,8.1,0.2,8.1s0.1,1.3,1.6,1.8c1.5,0.5,2.4,0.6,3.1,0.9c0.5,0.1,1.4,0.2,1.4,1.5c-0.1,1.6,0.1,4.9,0.2,6.6  C7,23,7,24,8.6,24c1.4,0,10,0,13.5,0c0,0,0.3,0,0.8,0c0.5,0,0.8,0,0.8,0c3.5,0,12.1,0,13.5,0c1.6,0,1.6-1.2,1.6-1.5  c0.1-1.6,0.2-5,0.2-6.6c0-1.2,0.8-1.4,1.4-1.5c0.8-0.2,1.6-0.5,3.1-0.9C44.6,13.1,44.8,12.3,44.8,11.7z M6.7,10.7H2.6  c-0.1,0-0.1-0.1-0.1-0.1c0-0.1,0.1-0.1,0.1-0.1h4.1c0.1,0,0.1,0.1,0.1,0.1C6.8,10.6,6.7,10.7,6.7,10.7z M6.7,8.1H2.6  C2.5,8.1,2.4,8,2.4,8c0-0.1,0.1-0.1,0.1-0.1h4.1c0.1,0,0.1,0.1,0.1,0.1C6.8,8,6.7,8.1,6.7,8.1z M6.7,5.5H2.6c-0.1,0-0.1-0.1-0.1-0.1  s0.1-0.1,0.1-0.1h4.1c0.1,0,0.1,0.1,0.1,0.1S6.7,5.5,6.7,5.5z M34.9,19.9c-1,0-18.6,0.1-23.9,0.1c-0.4,0-1,0.1-1-0.8  C10,18.1,9.6,8.6,9.6,5c0-0.5-0.1-1.1,1.1-1.1c3,0,18.4,0.2,24.6,0.2c0.6,0,0.8,0.2,0.8,0.9c0,1.1-0.4,10.6-0.4,14.1  C35.7,19.4,35.8,19.9,34.9,19.9z M43,10.7h-4.1c-0.1,0-0.1-0.1-0.1-0.1c0-0.1,0.1-0.1,0.1-0.1H43c0.1,0,0.1,0.1,0.1,0.1  C43.1,10.6,43.1,10.7,43,10.7z M43,8.1h-4.1c-0.1,0-0.1-0.1-0.1-0.1c0-0.1,0.1-0.1,0.1-0.1H43c0.1,0,0.1,0.1,0.1,0.1  C43.1,8,43.1,8.1,43,8.1z M43,5.5h-4.1c-0.1,0-0.1-0.1-0.1-0.1s0.1-0.1,0.1-0.1H43c0.1,0,0.1,0.1,0.1,0.1S43.1,5.5,43,5.5z" class="style-scope s-svg"></path>
<path d="M47.8,14.9h-5.2c-0.9,0-1.7,0.8-1.7,1.7V28c0,0.9,0.8,1.7,1.7,1.7h5.2c0.9,0,1.7-0.8,1.7-1.7V16.6  C49.5,15.7,48.7,14.9,47.8,14.9z M47.8,29.3h-5.2c-0.6,0-1.2-0.5-1.2-1.2v-0.8H49L49,28C49,28.7,48.5,29.3,47.8,29.3z M49,26.8h-7.6  v-8.9H49V26.8z M49.1,17.6h-7.7v-0.9c0-0.6,0.6-1.2,1.2-1.2h5.2c0.6,0,1.2,0.5,1.2,1.2V17.6z" class="style-scope s-svg"></path>
<rect x="43.8" y="16.5" width="2.8" height="0.4" class="style-scope s-svg"></rect>
<circle cx="45.3" cy="28.2" r="0.5" class="style-scope s-svg"></circle>
<path d="M45.2,22.7c-1.1,0-1.9,0.8-1.9,1.9h3.8C47.1,23.6,46.3,22.7,45.2,22.7z" class="style-scope s-svg"></path>
<circle cx="45.2" cy="21.1" r="1.2" class="style-scope s-svg"></circle>
<path d="M23.1,13c-2.5,0-4.4,2-4.4,4.4h8.9C27.5,15,25.5,13,23.1,13z" class="style-scope s-svg"></path>
<circle cx="23.1" cy="9.1" r="2.7" class="style-scope s-svg"></circle>
</svg>