<svg xmlns="http://www.w3.org/2000/svg" viewBox="0 0 50 30" preserveAspectRatio="xMidYMid meet" style="pointer-events: none; display: block; width: 100%; height: 100%;" class="style-scope s-svg" fill="#0099da">
<path d="M18.1,20.5c1.4,1.8,3.4,3,5.7,3.3v-4.7c-0.6-0.2-1.1-0.5-1.6-0.9L18.1,20.5z" class="style-scope s-svg"></path>
<path d="M20.9,14.1l-4.2-2.4c-1.5,3-0.4,5.7,0.1,6.8l4.1-2.4C20.8,15.7,20.6,15.1,20.9,14.1z" class="style-scope s-svg"></path>
<path d="M17.9,9.6l4.1,2.3c0.5-0.5,1.1-0.9,1.8-1.1V6.1C21.4,6.4,19.4,7.7,17.9,9.6z" class="style-scope s-svg"></path>
<path d="M25.1,0.5c-8,0-14.5,6.5-14.5,14.5s6.5,14.5,14.5,14.5S39.4,23,39.4,15S33.1,0.5,25.1,0.5z M25.1,26.7  c-6.5,0-11.7-5.3-11.7-11.7c0-6.5,5.3-11.7,11.7-11.7c6.5,0,11.7,5.3,11.7,11.7S31.6,26.7,25.1,26.7z" class="style-scope s-svg"></path>
<path d="M32.2,9.4c-1.4-1.8-3.4-3-5.8-3.4v4.7c0.6,0.2,1.3,0.6,1.7,1L32.2,9.4z" class="style-scope s-svg"></path>
<path d="M33.4,11.7L29.2,14c0.3,1,0.2,1.5,0,2l4.1,2.3C33.9,17.3,34.7,14.7,33.4,11.7z" class="style-scope s-svg"></path>
<path d="M26.4,19.1v4.7c2.3-0.3,4.3-1.5,5.7-3.3l-4.1-2.3C27.6,18.6,26.9,18.9,26.4,19.1z" class="style-scope s-svg"></path>
</svg>