<svg xmlns="http://www.w3.org/2000/svg" viewBox="0 0 50 30" preserveAspectRatio="xMidYMid meet" style="pointer-events: none; display: block; width: 100%; height: 100%;" class="style-scope s-svg" fill="#0099da">
<path d="M49.2,13.4c0.1-2.2,0.3-8,0.3-8.9c0-0.8-0.6-0.9-0.8-0.9c-6-0.3-10.6-0.5-23.9-0.5C10,3.1,1.3,3.6,1.3,3.6S0.5,3.5,0.5,4.5  s0.3,8.9,0.3,8.9s0.1,1.4,1.7,1.9s2.6,0.7,3.4,1c0.5,0.1,1.5,0.3,1.5,1.7c-0.1,1.7,0.1,5.4,0.3,7.2c0,0.6-0.1,1.6,1.7,1.6  c1.6,0,16.5,0,16.5,0c3.9,0,13.3,0,14.8,0c1.8,0,1.7-1.3,1.7-1.6c0.1-1.7,0.3-5.5,0.3-7.2c0-1.4,0.9-1.5,1.5-1.7  c0.8-0.3,1.7-0.5,3.4-1C49,14.9,49.2,14,49.2,13.4z M7.4,12.3H2.9c-0.1,0-0.1-0.1-0.1-0.1S2.8,12,2.9,12h4.5c0.1,0,0.1,0.1,0.1,0.1  S7.4,12.3,7.4,12.3z M7.4,9.4H2.9c-0.1,0-0.1-0.1-0.1-0.1s0.1-0.1,0.1-0.1h4.5c0.1,0,0.1,0.1,0.1,0.1S7.4,9.4,7.4,9.4z M7.4,6.6H2.9  c-0.1,0-0.1-0.1-0.1-0.1c0-0.1,0.1-0.1,0.1-0.1h4.5c0.1,0,0.1,0.1,0.1,0.1C7.6,6.5,7.4,6.6,7.4,6.6z M38.4,22.4l-26.3,0.1  c-0.5,0-1.1,0.1-1.1-0.8C11,21,10.6,6.8,10.6,6c0-0.5-0.1-1.2,1.2-1.2L38.8,5c0.6,0,0.9,0.3,0.9,1c-0.1,1.4-0.4,11.7-0.5,15.5  C39.3,21.8,39.5,22.4,38.4,22.4z M47.3,12.3h-4.5c-0.1,0-0.1-0.1-0.1-0.1s0.1-0.1,0.1-0.1h4.5c0.1,0,0.1,0.1,0.1,0.1  S47.4,12.3,47.3,12.3z M47.3,9.4h-4.5c-0.1,0-0.1-0.1-0.1-0.1s0.1-0.1,0.1-0.1h4.5c0.1,0,0.1,0.1,0.1,0.1S47.4,9.4,47.3,9.4z   M47.3,6.6h-4.5c-0.1,0-0.1-0.1-0.1-0.1c0-0.1,0.1-0.1,0.1-0.1h4.5c0.1,0,0.1,0.1,0.1,0.1C47.4,6.5,47.4,6.6,47.3,6.6z" class="style-scope s-svg"></path>
</svg>