<svg xmlns="http://www.w3.org/2000/svg" viewBox="0 0 50 30" preserveAspectRatio="xMidYMid meet" style="pointer-events: none; display: block; width: 100%; height: 100%;" class="style-scope s-svg" fill="#0099da">
<path d="M25.1,0.5c-8,0-14.5,6.4-14.6,14.4c0,8,6.4,14.5,14.4,14.6c8,0,14.5-6.4,14.6-14.4C39.6,7.1,33.1,0.6,25.1,0.5z M17.2,19.3  L15.5,21c0,0-0.1,0.1-0.2,0.1c-0.1,0-0.2,0-0.2-0.2c-1-1.7-1.7-3.5-1.7-5.7c0-0.1,0-0.2,0.1-0.4c0.1-0.1,0.4-0.1,0.4-0.1h2.3  c0,0,0.1,0,0.2,0.1c0.1,0.1,0.1,0.2,0.1,0.2v0.1c0,1.4,0.3,2.7,0.9,3.8c0.1,0.1,0.1,0.2,0.1,0.2C17.3,19.2,17.2,19.3,17.2,19.3z   M31.3,24.7c-1.8,1.2-4,1.9-6.3,1.9s-4.4-0.7-6.2-1.8c0,0-0.2-0.1-0.2-0.3c0-0.1,0.1-0.2,0.2-0.3l1.5-1.4c0,0,0.2-0.2,0.3-0.2  c0.1,0,0.2,0.1,0.3,0.1c1.3,0.7,2.6,1.1,4.1,1.1s3-0.3,4.2-1.1c0,0,0.1-0.1,0.2-0.1c0.1,0,0.2,0.1,0.2,0.1l1.7,1.7  c0,0,0.1,0.1,0.1,0.2S31.3,24.7,31.3,24.7z M21.9,16.3c0-1.6,1.4-3.1,3.1-3.1c1.7,0,3.1,1.3,3.1,3.1c0,1.6-1.4,3.1-3.1,3.1  S21.9,17.9,21.9,16.3z M15,10.1c0,0-0.2,0-0.3-0.1c-0.1-0.1-0.1-0.2,0-0.3C16.6,6,20.5,3.5,25,3.5s8.4,2.6,10.3,6.4  c0,0.1,0.1,0.2,0,0.3c0,0.1-0.2,0.1-0.2,0.1L15,10.1z M34.8,21c0,0.1-0.1,0.2-0.2,0.2c-0.1,0-0.2-0.2-0.2-0.2l-1.6-1.6  c0,0-0.1-0.1-0.2-0.2c0-0.1,0-0.2,0.1-0.3c0.5-1.2,0.9-2.3,0.9-3.7c0,0,0-0.3,0.1-0.4c0.1-0.1,0.3-0.1,0.3-0.1h2.2  c0,0,0.2,0,0.2,0.1c0.1,0.1,0.1,0.2,0.1,0.2C36.5,17.3,35.9,19.3,34.8,21z" class="style-scope s-svg"></path>
</svg>