<svg xmlns="http://www.w3.org/2000/svg" viewBox="0 0 50 30" preserveAspectRatio="xMidYMid meet" style="pointer-events: none; display: block; width: 100%; height: 100%;" class="style-scope s-svg" fill="#0099da">
<path d="M25,15.2h-7.6c0,0-0.2,0-0.2,0.1c0,0.2,0,2.3,0,2.3l0,0.2c-0.1,0.3-0.3,0.5-0.5,0.5l-3.3,0c-0.2-0.1-0.4-0.2-0.5-0.4  c0,0,0-0.9,0-1.2c0-0.7,0-1.3-0.1-2c0-0.5,0-1-0.1-1.4c-0.1-0.4-0.1-0.8-0.2-1.2c0-0.5,0-0.9,0-1.4c0-0.4,0.1-0.9,0.1-1.3  c0.1-0.4,0.2-0.8,0.4-1.3c0,0,0.1-0.2,0.1-0.3l0,0l0,0l-0.1,0h-1.6l-0.1,0c0,0-0.5-0.2-0.6-0.5c-0.1-0.3,0.6-1.9,0.6-1.9  c0.2-0.2,0.4-0.3,0.7-0.3l2.4,0l0.1,0l0,0c0,0,2.3-3.1,2.6-3.4c0.3-0.3,0.5-0.5,0.9-0.7c0.3-0.2,0.7-0.3,1-0.4c0.1,0,0.1,0,0.2,0  c3.4-0.4,7.3-0.6,10.8-0.1c0.4,0,0.7,0.1,1,0.3c0.3,0.1,0.6,0.3,0.9,0.5c0.7,0.6,1.3,1.3,1.8,2c0.3,0.3,0.5,0.7,0.8,1  c0.2,0.2,0.6,0.8,0.6,0.8l0.1,0c0,0,1.7-0.1,2.3,0s0.9,0.5,1,0.6c0,0,0.3,1.1,0.5,1.5l0,0.1c0,0,0,0.4-0.6,0.6c-0.5,0.1,0,0,0,0  l-1.8,0l0,0L36.9,8l0.1,0.2L37,8.3c0.1,0.2,0.1,0.4,0.2,0.6c0.1,0.3,0.1,0.5,0.2,0.8c0.1,0.3,0.1,0.7,0.1,1.1c0,0.4,0,0.8,0,1.2  c0,0.4-0.1,0.7-0.1,1c-0.1,0.4-0.1,0.8-0.2,1.2c0,0.5,0,1,0,1.6c0,0.5,0,1.9,0,2v0.1l0,0.1c-0.1,0.2-0.2,0.4-0.4,0.4l-3.4,0  l-0.2-0.1c-0.2-0.1-0.3-0.3-0.3-0.5l0-2.5l0-0.1L25,15.2L25,15.2z M14.8,10.6L14.8,10.6c-0.1,0.8,0,1.6,0.1,2.3l0.1,0h0.1h19.7h0.1  l0.1,0l0,0c0.1-0.8,0.1-1.5,0.1-2.3l-0.1-0.1l-4.2,0l-0.1-0.1v-2L31,8.3l3.4,0l0,0l0,0l0,0l-0.6-1.1l-0.1,0H16.3h-0.1l-0.1,0.1  c-0.2,0.3-0.3,0.5-0.5,0.8l-0.1,0.3l0,0.1l0,0l0.1,0H19h0.1l0.1,0.1l0,0.1v2.1l0,0.1l0,0l-0.1,0h-4L14.8,10.6L14.8,10.6L14.8,10.6  L14.8,10.6z M25,5.2h7.3l0.1,0l0,0l0,0l0,0L30.7,3l0-0.1l0,0l-0.2,0C26.8,2.4,23,2.5,19.3,3l-0.1,0l0,0l-1.6,2l-0.1,0.1l0,0l0,0  l0.1,0L25,5.2L25,5.2L25,5.2z" class="style-scope s-svg"></path>
<path d="M29.1,29.8L29.1,29.8l-9.3,0l-0.1,0l0,0l0-0.1l0.4-2.2l0-0.1l0,0l0,0h0.1h8.3h0.1l0.1,0l0,0.1l0,0.1L29.1,29.8L29.1,29.8  L29.1,29.8z" class="style-scope s-svg"></path>
<path d="M27.8,22.7l0,0.1l0.4,1.9l0,0.1l0,0l0,0h-0.1h-7.4l-0.1,0l0-0.1l0.4-2.1l0,0L27.8,22.7L27.8,22.7L27.8,22.7L27.8,22.7z" class="style-scope s-svg"></path>
<path d="M24.4,20.2h-2.9l-0.1-0.1l0.3-1.8l0,0l5.2,0l0,0l0.3,1.9l0,0L24.4,20.2L24.4,20.2L24.4,20.2L24.4,20.2z" class="style-scope s-svg"></path>
</svg>