<svg version="1.1" xmlns="http://www.w3.org/2000/svg" xmlns:xlink="http://www.w3.org/1999/xlink" x="0px" y="0px" viewBox="0 0 80 80" enable-background="new 0 0 80 80" xml:space="preserve" class="vw_m200_icon" fill="#0099da">
<g>
	<path d="M40,9C22.8,9,8.8,22.9,8.8,40c0,17.1,14,31,31.2,31c17.2,0,31.2-13.9,31.2-31C71.2,22.9,57.2,9,40,9z M16.7,46
		c-0.3-1.1,0.5-2.1,1.6-2.2c4.3-0.2,10.3,0.1,13.1,3.4c3.2,3.7,3.8,10.2,3.8,13.9c0,1.2-1.1,2-2.2,1.7C25,60.4,18.8,54.1,16.7,46z
		 M47.8,47.3c3-3.5,9.6-3.7,13.9-3.3c1.1,0.1,1.8,1.1,1.6,2.2c-2.2,8.3-8.8,14.8-17.1,17C45,63.4,44,62.5,44,61.4
		C44,57.7,44.5,51,47.8,47.3z M40,16.1c9.9,0,18.5,6,22.1,14.5c0.5,1.1-0.4,2.3-1.6,2.2c-5.1-0.7-12.5-1.4-21.1-1.4
		c-8.2,0-15.1,0.7-19.9,1.4c-1.2,0.2-2.1-1-1.6-2.2C21.6,22.1,30.1,16.1,40,16.1z"></path>
</g>
</svg>