<svg version="1.1" xmlns="http://www.w3.org/2000/svg" xmlns:xlink="http://www.w3.org/1999/xlink" x="0px" y="0px" viewBox="0 0 80 80" enable-background="new 0 0 80 80" xml:space="preserve" class="vw_m200_icon" fill="#0099da">
									<path d="M58.9,7.8H21.1c-1.9,0-3.4,1.5-3.4,3.4v57.7c0,1.9,1.5,3.4,3.4,3.4h37.7c1.9,0,3.4-1.5,3.4-3.4V11.2
										C62.2,9.3,60.7,7.8,58.9,7.8z M24.5,14.5h31v14.9h-31V14.5z M32.8,67h-8.4v-8.3h8.4V67z M32.8,55.9h-8.4v-8.3h8.4V55.9z M32.8,44.7
										h-8.4v-8.3h8.4V44.7z M44.2,67h-8.4v-8.3h8.4V67z M44.2,55.9h-8.4v-8.3h8.4V55.9z M44.2,44.7h-8.4v-8.3h8.4V44.7z M55.6,67h-8.4
										v-8.3h8.4V67z M55.6,55.9h-8.4v-8.3h8.4V55.9z M55.6,44.7h-8.4v-8.3h8.4V44.7z"></path>
									</svg>