<svg version="1.1" xmlns="http://www.w3.org/2000/svg" xmlns:xlink="http://www.w3.org/1999/xlink" x="0px" y="0px" viewBox="0 0 80 80" enable-background="new 0 0 80 80" xml:space="preserve" class="vw_m200_icon" fill="#0099da">
									<path d="M40,6.3c-19.5,0-24.5,4.9-24.5,24.3c0,17.1,19,38.1,23.5,42.8c0.5,0.5,1.4,0.5,1.9,0c4.5-4.7,23.5-25.7,23.5-42.8
										C64.5,11.2,59.5,6.3,40,6.3z M40,35.4c-4.1,0-7.5-3.3-7.5-7.5c0-4.1,3.3-7.5,7.5-7.5c4.1,0,7.5,3.3,7.5,7.5
										C47.5,32.1,44.1,35.4,40,35.4z"></path>
									</svg>