<svg version="1.1" xmlns="http://www.w3.org/2000/svg" xmlns:xlink="http://www.w3.org/1999/xlink" x="0px" y="0px" viewBox="0 0 80 80" enable-background="new 0 0 80 80" xml:space="preserve" class="vw_m200_icon" fill="#0099da">
									<path d="M69.7,12.5l-2.2-2.2c-0.5-0.5-1.1-0.7-1.7-0.6L44.1,12l-34,34c-0.7,0.7-0.7,1.8,0,2.5l21.4,21.4c0.7,0.7,1.8,0.7,2.5,0
										l34-34l2.3-21.7C70.4,13.5,70.2,12.9,69.7,12.5z M21.6,50.1l22.3-22.3l2.5,2.5L24.1,52.6L21.6,50.1z M30.2,58.5L27.7,56L45,38.7
										l2.5,2.5L30.2,58.5z M58.8,24.8c-2,0-3.6-1.6-3.6-3.6s1.6-3.6,3.6-3.6c2,0,3.6,1.6,3.6,3.6S60.8,24.8,58.8,24.8z"></path>
									</svg>