<svg xmlns="http://www.w3.org/2000/svg" viewBox="0 0 50 30" style="width:100%;height:100%" class="style-scope s-svg" fill="#0099da" pointer-events="none" display="block"><path d="M49.2 13.4c.1-2.2.3-8 .3-8.9 0-.8-.6-.9-.8-.9-6-.3-10.6-.5-23.9-.5-14.8 0-23.5.5-23.5.5s-.8-.1-.8.9.3 8.9.3 8.9.1 1.4 1.7 1.9 2.6.7 3.4 1c.5.1 1.5.3 1.5 1.7-.1 1.7.1 5.4.3 7.2 0 .6-.1 1.6 1.7 1.6h31.3c1.8 0 1.7-1.3 1.7-1.6.1-1.7.3-5.5.3-7.2 0-1.4.9-1.5 1.5-1.7.8-.3 1.7-.5 3.4-1 1.4-.4 1.6-1.3 1.6-1.9zM7.4 12.3H2.9c-.1 0-.1-.1-.1-.1s0-.2.1-.2h4.5c.1 0 .1.1.1.1l-.1.2zm0-2.9H2.9c-.1 0-.1-.1-.1-.1l.1-.1h4.5c.1 0 .1.1.1.1l-.1.1zm0-2.8H2.9c-.1 0-.1-.1-.1-.1 0-.1.1-.1.1-.1h4.5c.1 0 .1.1.1.1.1 0-.1.1-.1.1zm31 15.8l-26.3.1c-.5 0-1.1.1-1.1-.8 0-.7-.4-14.9-.4-15.7 0-.5-.1-1.2 1.2-1.2l27 .2c.6 0 .9.3.9 1-.1 1.4-.4 11.7-.5 15.5.1.3.3.9-.8.9zm8.9-10.1h-4.5c-.1 0-.1-.1-.1-.1l.1-.1h4.5c.1 0 .1.1.1.1s0 .1-.1.1zm0-2.9h-4.5c-.1 0-.1-.1-.1-.1l.1-.1h4.5c.1 0 .1.1.1.1s0 .1-.1.1zm0-2.8h-4.5c-.1 0-.1-.1-.1-.1 0-.1.1-.1.1-.1h4.5c.1 0 .1.1.1.1s0 .1-.1.1z" class="style-scope s-svg"/></svg>