<svg xmlns="http://www.w3.org/2000/svg" viewBox="0 0 50 30" style="width:100%;height:100%" class="style-scope s-svg" fill="#0099da" pointer-events="none" display="block"><path d="M18.1 20.5c1.4 1.8 3.4 3 5.7 3.3v-4.7c-.6-.2-1.1-.5-1.6-.9l-4.1 2.3zm2.8-6.4l-4.2-2.4c-1.5 3-.4 5.7.1 6.8l4.1-2.4c-.1-.4-.3-1 0-2zm-3-4.5l4.1 2.3c.5-.5 1.1-.9 1.8-1.1V6.1c-2.4.3-4.4 1.6-5.9 3.5z" class="style-scope s-svg"/><path d="M25.1.5C17.1.5 10.6 7 10.6 15s6.5 14.5 14.5 14.5S39.4 23 39.4 15 33.1.5 25.1.5zm0 26.2c-6.5 0-11.7-5.3-11.7-11.7 0-6.5 5.3-11.7 11.7-11.7 6.5 0 11.7 5.3 11.7 11.7s-5.2 11.7-11.7 11.7z" class="style-scope s-svg"/><path d="M32.2 9.4c-1.4-1.8-3.4-3-5.8-3.4v4.7c.6.2 1.3.6 1.7 1l4.1-2.3zm1.2 2.3L29.2 14c.3 1 .2 1.5 0 2l4.1 2.3c.6-1 1.4-3.6.1-6.6zm-7 7.4v4.7c2.3-.3 4.3-1.5 5.7-3.3L28 18.2c-.4.4-1.1.7-1.6.9z" class="style-scope s-svg"/></svg>