<svg xmlns="http://www.w3.org/2000/svg" viewBox="0 0 50 30" style="width:100%;height:100%" class="style-scope s-svg" fill="#0099da" pointer-events="none" display="block"><path d="M44.8 11.7c.1-2 .2-7.2.2-8.1 0-.8-.5-.8-.7-.8-5.4-.2-9.7-.5-21.7-.5-13.4 0-21.4.4-21.4.4s-.7 0-.7.9.2 8.1.2 8.1.1 1.3 1.6 1.8 2.4.6 3.1.9c.5.1 1.4.2 1.4 1.5-.1 1.6.1 4.9.2 6.6C7 23 7 24 8.6 24h28.6c1.6 0 1.6-1.2 1.6-1.5.1-1.6.2-5 .2-6.6 0-1.2.8-1.4 1.4-1.5.8-.2 1.6-.5 3.1-.9 1.1-.4 1.3-1.2 1.3-1.8zm-38.1-1H2.6c-.1 0-.1-.1-.1-.1 0-.1.1-.1.1-.1h4.1c.1 0 .1.1.1.1l-.1.1zm0-2.6H2.6c-.1 0-.2-.1-.2-.1 0-.1.1-.1.1-.1h4.1c.1 0 .1.1.1.1.1 0 0 .1 0 .1zm0-2.6H2.6c-.1 0-.1-.1-.1-.1l.1-.1h4.1c.1 0 .1.1.1.1l-.1.1zm28.2 14.4c-1 0-18.6.1-23.9.1-.4 0-1 .1-1-.8 0-1.1-.4-10.6-.4-14.2 0-.5-.1-1.1 1.1-1.1 3 0 18.4.2 24.6.2.6 0 .8.2.8.9 0 1.1-.4 10.6-.4 14.1 0 .3.1.8-.8.8zm8.1-9.2h-4.1c-.1 0-.1-.1-.1-.1 0-.1.1-.1.1-.1H43c.1 0 .1.1.1.1s0 .1-.1.1zm0-2.6h-4.1c-.1 0-.1-.1-.1-.1 0-.1.1-.1.1-.1H43c.1 0 .1.1.1.1s0 .1-.1.1zm0-2.6h-4.1c-.1 0-.1-.1-.1-.1l.1-.1H43c.1 0 .1.1.1.1s0 .1-.1.1z" class="style-scope s-svg"/><path d="M47.8 14.9h-5.2c-.9 0-1.7.8-1.7 1.7V28c0 .9.8 1.7 1.7 1.7h5.2c.9 0 1.7-.8 1.7-1.7V16.6c0-.9-.8-1.7-1.7-1.7zm0 14.4h-5.2c-.6 0-1.2-.5-1.2-1.2v-.8H49v.7c0 .7-.5 1.3-1.2 1.3zm1.2-2.5h-7.6v-8.9H49v8.9zm.1-9.2h-7.7v-.9c0-.6.6-1.2 1.2-1.2h5.2c.6 0 1.2.5 1.2 1.2v.9z" class="style-scope s-svg"/><path class="style-scope s-svg" d="M43.8 16.5h2.8v.4h-2.8z"/><circle cx="45.3" cy="28.2" r=".5" class="style-scope s-svg"/><path d="M45.2 22.7c-1.1 0-1.9.8-1.9 1.9h3.8c0-1-.8-1.9-1.9-1.9z" class="style-scope s-svg"/><circle cx="45.2" cy="21.1" r="1.2" class="style-scope s-svg"/><path d="M23.1 13c-2.5 0-4.4 2-4.4 4.4h8.9c-.1-2.4-2.1-4.4-4.5-4.4z" class="style-scope s-svg"/><circle cx="23.1" cy="9.1" r="2.7" class="style-scope s-svg"/></svg>