<svg xmlns="http://www.w3.org/2000/svg" viewBox="0 0 50 30" style="width:100%;height:100%" class="style-scope s-svg" fill="#0099da" pointer-events="none" display="block"><path d="M25 15.2h-7.6s-.2 0-.2.1v2.5c-.1.3-.3.5-.5.5h-3.3c-.2-.1-.4-.2-.5-.4v-1.2c0-.7 0-1.3-.1-2 0-.5 0-1-.1-1.4-.1-.4-.1-.8-.2-1.2v-1.4c0-.4.1-.9.1-1.3.1-.4.2-.8.4-1.3 0 0 .1-.2.1-.3h-1.8s-.5-.2-.6-.5c-.1-.3.6-1.9.6-1.9.2-.2.4-.3.7-.3h2.5s2.3-3.1 2.6-3.4c.3-.3.5-.5.9-.7.3-.2.7-.3 1-.4h.2C22.6.2 26.5 0 30 .5c.4 0 .7.1 1 .3.3.1.6.3.9.5.7.6 1.3 1.3 1.8 2 .3.3.5.7.8 1 .2.2.6.8.6.8h.1s1.7-.1 2.3 0 .9.5 1 .6c0 0 .3 1.1.5 1.5v.1s0 .4-.6.6c-.5.1 0 0 0 0h-1.8l.3.1.1.2v.1c.1.2.1.4.2.6.1.3.1.5.2.8.1.3.1.7.1 1.1V12c0 .4-.1.7-.1 1-.1.4-.1.8-.2 1.2V18c-.1.2-.2.4-.4.4h-3.4l-.2-.1c-.2-.1-.3-.3-.3-.5v-2.6H25zm-10.2-4.6c-.1.8 0 1.6.1 2.3H35c.1-.8.1-1.5.1-2.3l-.1-.1h-4.2l-.1-.1v-2l.3-.1h3.4l-.6-1.1H16.2l-.1.1c-.2.3-.3.5-.5.8l-.1.3v.1h3.6l.1.1v2.3h-4.1l-.3-.3zM25 5.2h7.4L30.7 3v-.1h-.2c-3.7-.5-7.5-.4-11.2.1h-.1l-1.6 2-.1.1h.1l7.4.1zm4.1 24.6h-9.4v-.1l.4-2.2v-.1h8.6v.2l.4 2.2zm-1.3-7.1v.1l.4 1.9v.1h-7.6v-.1l.4-2.1 6.8.1z" class="style-scope s-svg"/><path d="M24.4 20.2h-2.9l-.1-.1.3-1.8h5.2l.3 1.9h-2.8z" class="style-scope s-svg"/></svg>