<svg xmlns="http://www.w3.org/2000/svg" viewBox="0 0 50 30" style="width:100%;height:100%" class="style-scope s-svg" fill="#0099da" pointer-events="none" display="block"><path d="M25.1.5c-8 0-14.5 6.4-14.6 14.4 0 8 6.4 14.5 14.4 14.6 8 0 14.5-6.4 14.6-14.4.1-8-6.4-14.5-14.4-14.6zm-7.9 18.8L15.5 21s-.1.1-.2.1-.2 0-.2-.2c-1-1.7-1.7-3.5-1.7-5.7 0-.1 0-.2.1-.4.1-.1.4-.1.4-.1h2.3s.1 0 .2.1.1.2.1.2v.1c0 1.4.3 2.7.9 3.8.1.1.1.2.1.2-.2.1-.3.2-.3.2zm14.1 5.4c-1.8 1.2-4 1.9-6.3 1.9s-4.4-.7-6.2-1.8c0 0-.2-.1-.2-.3 0-.1.1-.2.2-.3l1.5-1.4s.2-.2.3-.2c.1 0 .2.1.3.1 1.3.7 2.6 1.1 4.1 1.1s3-.3 4.2-1.1c0 0 .1-.1.2-.1s.2.1.2.1l1.7 1.7s.1.1.1.2-.1.1-.1.1zm-9.4-8.4c0-1.6 1.4-3.1 3.1-3.1 1.7 0 3.1 1.3 3.1 3.1 0 1.6-1.4 3.1-3.1 3.1s-3.1-1.5-3.1-3.1zM15 10.1s-.2 0-.3-.1c-.1-.1-.1-.2 0-.3C16.6 6 20.5 3.5 25 3.5s8.4 2.6 10.3 6.4c0 .1.1.2 0 .3 0 .1-.2.1-.2.1L15 10.1zM34.8 21c0 .1-.1.2-.2.2s-.2-.2-.2-.2l-1.6-1.6-.2-.2c0-.1 0-.2.1-.3.5-1.2.9-2.3.9-3.7 0 0 0-.3.1-.4.1-.1.3-.1.3-.1h2.2s.2 0 .2.1c.1.1.1.2.1.2 0 2.3-.6 4.3-1.7 6z" class="style-scope s-svg"/></svg>