<svg xmlns="http://www.w3.org/2000/svg" viewBox="0 0 80 80" class="vw_m200_icon" fill="#0099da"><path d="M40 9C22.8 9 8.8 22.9 8.8 40s14 31 31.2 31 31.2-13.9 31.2-31S57.2 9 40 9zM16.7 46c-.3-1.1.5-2.1 1.6-2.2 4.3-.2 10.3.1 13.1 3.4 3.2 3.7 3.8 10.2 3.8 13.9 0 1.2-1.1 2-2.2 1.7-8-2.4-14.2-8.7-16.3-16.8zm31.1 1.3c3-3.5 9.6-3.7 13.9-3.3 1.1.1 1.8 1.1 1.6 2.2-2.2 8.3-8.8 14.8-17.1 17-1.2.2-2.2-.7-2.2-1.8 0-3.7.5-10.4 3.8-14.1zM40 16.1c9.9 0 18.5 6 22.1 14.5.5 1.1-.4 2.3-1.6 2.2-5.1-.7-12.5-1.4-21.1-1.4-8.2 0-15.1.7-19.9 1.4-1.2.2-2.1-1-1.6-2.2 3.7-8.5 12.2-14.5 22.1-14.5z"/></svg>