<svg xmlns="http://www.w3.org/2000/svg" viewBox="0 0 80 80" class="vw_m200_icon" fill="#0099da"><path d="M66.1 37.1c-.6-2.3-1-3.8-1.6-6.1l4-8.8c-2.7-3.2-3.1-3.6-5.8-6.8l-9.3 2.5c-2.1-1-3.6-1.6-5.7-2.6l-4.4-8.7c-4.2.1-4.8.1-8.9.3l-3.8 8.9c-2.1 1.1-3.4 1.8-5.5 2.9l-9.5-2c-2.5 3.4-2.8 3.8-5.3 7.2l4.6 8.6c-.4 2.3-.7 3.8-1.2 6.1l-7.4 6.2c1.1 4.1 1.2 4.6 2.3 8.7l9.5 1.8c1.5 1.8 2.5 3 4.1 4.8l.3 9.7c3.8 1.7 4.4 1.9 8.2 3.7l7.3-6.3c2.3-.1 3.9-.1 6.2-.2l7.7 5.9c3.7-1.9 4.2-2.2 7.9-4.1l-.5-9.7c1.4-1.9 2.3-3.1 3.7-5l9.4-2.3c.8-4.1.9-4.7 1.7-8.8l-8-5.9zM40 55.9c-8.8 0-15.9-7.1-15.9-15.9S31.2 24.1 40 24.1 55.9 31.2 55.9 40 48.8 55.9 40 55.9z"/></svg>